Coordinates
version=1
nRows=13
nColumns=40
inDegrees=yes

Units are S.I. units (second, meters, Newtons, ...)
If the header above contains a line with 'inDegrees', this indicates whether rotational values are in degrees (yes) or radians (no).

endheader
time	pelvis_tilt	pelvis_list	pelvis_rotation	pelvis_tx	pelvis_ty	pelvis_tz	hip_flexion_r	hip_adduction_r	hip_rotation_r	knee_angle_r	knee_angle_r_beta	ankle_angle_r	subtalar_angle_r	mtp_angle_r	hip_flexion_l	hip_adduction_l	hip_rotation_l	knee_angle_l	knee_angle_l_beta	ankle_angle_l	subtalar_angle_l	mtp_angle_l	lumbar_extension	lumbar_bending	lumbar_rotation	arm_flex_r	arm_add_r	arm_rot_r	elbow_flex_r	pro_sup_r	wrist_flex_r	wrist_dev_r	arm_flex_l	arm_add_l	arm_rot_l	elbow_flex_l	pro_sup_l	wrist_flex_l	wrist_dev_l
      5.30000000	    -11.11859719	     -1.93637669	      3.00343749	     -0.54700109	      0.93532248	      0.27391978	     37.71932680	     -1.01234242	    -12.99576751	     47.09852024	      0.82202425	     18.97163553	      3.30293965	      0.00000000	     26.30430755	     -5.83803773	      6.47808007	    116.98763910	      2.04181949	     -3.29953111	     -7.29820072	      0.00000000	    -21.79819412	      5.74772799	     -9.03708165	      0.13436222	    -16.56401903	    -10.54530792	    101.70972312	     51.05985701	      0.00000000	      0.00000000	    -13.50109081	    -14.72903986	    -12.24335058	     79.20037756	     39.56844394	      0.00000000	      0.00000000
      5.30500000	    -10.62557387	     -1.52753839	      1.81297796	     -0.51512485	      0.93593630	      0.27554169	     35.56389679	     -0.57907032	    -11.73399179	     48.17865453	      0.84087615	     21.06577843	      3.69544506	      0.00000000	     28.63851789	     -5.69208045	      5.83131167	    118.05323288	      2.06041761	     -2.79470990	     -7.90674988	      0.00000000	    -22.23598512	      4.70845628	     -8.11966167	      4.11647902	    -16.37166089	     -9.28058801	    102.69829992	     50.85161900	      0.00000000	      0.00000000	    -15.63048255	    -14.08457043	    -12.99128465	     77.52382230	     39.65581390	      0.00000000	      0.00000000
      5.31000000	    -10.12777770	     -1.04099992	      0.67646461	     -0.48310305	      0.93677680	      0.27708690	     33.23449059	     -0.35315958	    -10.51567324	     48.94969402	      0.85433333	     22.79041303	      3.91967133	      0.00000000	     30.97177257	     -5.49810859	      5.15892480	    118.74751269	      2.07253508	     -2.27818346	     -8.35996593	      0.00000000	    -22.64837398	      3.56783179	     -6.58640634	      7.13450981	    -16.20766916	     -9.14394522	    104.55787941	     50.94390911	      0.00000000	      0.00000000	    -17.34583632	    -13.86900037	    -12.69023066	     76.09718537	     39.57977760	      0.00000000	      0.00000000
      5.31500000	     -9.68040302	     -0.51793987	     -0.36817500	     -0.45097265	      0.93768012	      0.27851685	     30.81479187	     -0.32845104	     -9.39247317	     49.43198721	      0.86275093	     24.24460176	      4.92362383	      0.00000000	     33.37356742	     -5.28421626	      4.48249836	    119.10777253	      2.07882280	     -2.03208573	     -9.25422869	      0.00000000	    -22.76018135	      2.42906816	     -5.41828042	     10.49741716	    -15.94726465	     -8.49673671	    105.86519048	     50.97570684	      0.00000000	      0.00000000	    -19.27613530	    -13.77751132	    -12.33176713	     74.64126957	     39.54760706	      0.00000000	      0.00000000
      5.32000000	     -9.27342784	      0.05184210	     -1.29459638	     -0.41871760	      0.93862843	      0.27979759	     28.32393900	     -0.52315959	     -8.40003624	     49.67007714	      0.86690639	     25.31955709	      5.47191686	      0.00000000	     35.80000863	     -5.01539478	      3.84253402	    119.14397440	      2.07945464	     -1.65949947	     -9.90652181	      0.00000000	    -22.78908197	      1.23369917	     -4.55203692	     13.86478809	    -15.82134325	     -7.62085311	    107.19946175	     50.91230295	      0.00000000	      0.00000000	    -21.61062393	    -13.54306205	    -12.45537900	     74.06620697	     39.71112855	      0.00000000	      0.00000000
      5.32500000	     -8.92844748	      0.66758400	     -2.11274929	     -0.38633261	      0.93955026	      0.28096164	     25.81472207	     -0.92241102	     -7.53102102	     49.69144309	      0.86727929	     26.01511250	      6.24088520	      0.00000000	     38.25487892	     -4.70238542	      3.21460974	    118.87858756	      2.07482276	     -1.35437071	    -10.58943832	      0.00000000	    -22.66397938	      0.01890738	     -3.40774560	     16.65439818	    -15.80645758	     -7.33958114	    108.97136091	     50.98564665	      0.00000000	      0.00000000	    -23.66379946	    -13.57762583	    -12.03661126	     73.46773806	     39.74677752	      0.00000000	      0.00000000
      5.33000000	     -8.66396132	      1.31081868	     -2.81410433	     -0.35384399	      0.94037102	      0.28202862	     23.33947635	     -1.48612106	     -6.79012492	     49.53868371	      0.86461314	     26.30659175	      6.87651238	      0.00000000	     40.74686733	     -4.35971706	      2.62524728	    118.34070527	      2.06543495	     -1.00677598	    -11.24630382	      0.00000000	    -22.36216993	     -1.19859799	     -2.51863329	     19.52702020	    -15.85630729	     -6.83613505	    110.53438122	     51.02148696	      0.00000000	      0.00000000	    -26.07697050	    -13.74078006	    -11.61620273	     73.49879086	     39.90459905	      0.00000000	      0.00000000
      5.33500000	     -8.49693278	      1.96889272	     -3.40943700	     -0.32124969	      0.94105637	      0.28303463	     20.93916031	     -2.17251881	     -6.15842893	     49.23593798	      0.85932923	     26.15558107	      7.58856077	      0.00000000	     43.27560653	     -4.01084269	      2.08017596	    117.54584286	      2.05156198	     -0.60234924	    -11.79546536	      0.00000000	    -21.88398975	     -2.38659500	     -1.57678685	     22.04720476	    -15.89828074	     -6.58876267	    112.42755853	     51.12720579	      0.00000000	      0.00000000	    -28.21148633	    -13.89162497	    -11.24778495	     73.25751596	     39.94912965	      0.00000000	      0.00000000
      5.34000000	     -8.42877480	      2.62860595	     -3.88574167	     -0.28854703	      0.94159540	      0.28395800	     18.63106368	     -2.95138845	     -5.63939254	     48.81406435	      0.85196614	     25.62895197	      8.28296011	      0.00000000	     45.83219254	     -3.65713956	      1.59015587	    116.49805557	      2.03327464	     -0.32878868	    -12.39428206	      0.00000000	    -21.24231045	     -3.56289908	     -0.90350992	     24.77466401	    -16.13181948	     -6.10241529	    113.89187435	     51.18498509	      0.00000000	      0.00000000	    -30.96674552	    -14.28485383	    -10.80203285	     74.11065565	     40.15807391	      0.00000000	      0.00000000
      5.34500000	     -8.44858615	      3.28222561	     -4.25530992	     -0.25568387	      0.94204564	      0.28482152	     16.40728470	     -3.78627349	     -5.20484975	     48.27732542	      0.84259828	     24.63794952	      8.94089452	      0.00000000	     48.37636156	     -3.31168297	      1.15228315	    115.20178043	      2.01065037	      0.00726406	    -12.86626572	      0.00000000	    -20.46503010	     -4.68382619	     -0.28306791	     27.29955005	    -16.29889521	     -5.70240033	    115.54427604	     51.25594830	      0.00000000	      0.00000000	    -33.55614966	    -14.59889595	    -10.54367629	     74.73685199	     40.34362086	      0.00000000	      0.00000000
      5.35000000	     -8.53908682	      3.92871215	     -4.51702475	     -0.22262406	      0.94246541	      0.28561499	     14.25321579	     -4.65778288	     -4.84618889	     47.63300431	      0.83135276	     23.18514908	      9.53607230	      0.00000000	     50.86564584	     -2.96659196	      0.75740312	    113.64720784	      1.98351796	      0.32490692	    -13.26981782	      0.00000000	    -19.57492743	     -5.76167104	      0.24931820	     29.71796275	    -16.49283880	     -5.31381141	    117.18023676	     51.32538520	      0.00000000	      0.00000000	    -36.18693683	    -14.93814961	    -10.37794701	     75.49079484	     40.53603004	      0.00000000	      0.00000000
      5.35500000	     -8.66874539	      4.56730157	     -4.67534650	     -0.18931130	      0.94295227	      0.28631731	     12.13037681	     -5.55192529	     -4.56161504	     46.87283212	      0.81808525	     21.28920809	     10.05298731	      0.00000000	     53.23782834	     -2.61103114	      0.39260738	    111.83081741	      1.95181597	      0.60373327	    -13.58826941	      0.00000000	    -18.62138945	     -6.79603065	      0.68270327	     32.04762654	    -16.72168769	     -4.91692803	    118.78775453	     51.39037038	      0.00000000	      0.00000000	    -38.85958934	    -15.27921416	    -10.34035412	     76.39127593	     40.73494435	      0.00000000	      0.00000000
      5.36000000	     -8.82299791	      5.20640191	     -4.73573584	     -0.15573114	      0.94355796	      0.28692581	     10.02831102	     -6.46001608	     -4.34089640	     46.00546268	      0.80294680	     18.95118473	     10.46107646	      0.00000000	     55.45491505	     -2.23090253	      0.04377200	    109.74290704	      1.91537506	      0.83516493	    -13.78783375	      0.00000000	    -17.63318829	     -7.79923001	      1.04289098	     34.21450826	    -16.97304544	     -4.51089272	    120.47233315	     51.46916464	      0.00000000	      0.00000000	    -41.50748892	    -15.61792422	    -10.40957335	     77.27908931	     40.90298671	      0.00000000	      0.00000000
